<mxfile host="app.diagrams.net" modified="2023-05-29T13:28:01.240Z" agent="Mozilla/5.0 (Windows NT 10.0; Win64; x64) AppleWebKit/537.36 (KHTML, like Gecko) Chrome/113.0.0.0 Safari/537.36" etag="Lb3Kf0swJz9X5NuEoMjb" version="21.3.3" type="device">
  <diagram name="PÃ¡gina-1" id="mkSk5S7644ks4b_akuFa">
    <mxGraphModel dx="248" dy="-691" grid="1" gridSize="10" guides="1" tooltips="1" connect="1" arrows="1" fold="1" page="1" pageScale="1" pageWidth="827" pageHeight="1169" math="0" shadow="0">
      <root>
        <mxCell id="0" />
        <mxCell id="1" parent="0" />
        <mxCell id="GwO_5mMP7RVcSomFtQi5-1" value="&amp;lt;&amp;lt;Entity&amp;gt;&amp;gt;&lt;br&gt;&amp;lt;&amp;lt;Root&amp;gt;&amp;gt;&lt;br style=&quot;border-color: var(--border-color);&quot;&gt;Invitation " style="rounded=0;whiteSpace=wrap;html=1;" vertex="1" parent="1">
          <mxGeometry x="1480" y="1508.97" width="120" height="60" as="geometry" />
        </mxCell>
        <mxCell id="GwO_5mMP7RVcSomFtQi5-2" value="&amp;lt;&amp;lt;Value Object&amp;gt;&amp;gt;&lt;br&gt;Response Status" style="rounded=0;whiteSpace=wrap;html=1;" vertex="1" parent="1">
          <mxGeometry x="1320" y="1508.97" width="120" height="60" as="geometry" />
        </mxCell>
        <mxCell id="GwO_5mMP7RVcSomFtQi5-3" value="" style="endArrow=diamondThin;endFill=1;endSize=24;html=1;rounded=0;entryX=0;entryY=0.5;entryDx=0;entryDy=0;" edge="1" parent="1" source="GwO_5mMP7RVcSomFtQi5-2" target="GwO_5mMP7RVcSomFtQi5-1">
          <mxGeometry width="160" relative="1" as="geometry">
            <mxPoint x="1630" y="1836" as="sourcePoint" />
            <mxPoint x="1590" y="1756" as="targetPoint" />
            <Array as="points" />
          </mxGeometry>
        </mxCell>
        <mxCell id="GwO_5mMP7RVcSomFtQi5-5" value="&amp;lt;&amp;lt;Value Object&amp;gt;&amp;gt;&lt;br&gt;Invitation ID" style="rounded=0;whiteSpace=wrap;html=1;" vertex="1" parent="1">
          <mxGeometry x="1640" y="1507.94" width="120" height="61.03" as="geometry" />
        </mxCell>
        <mxCell id="GwO_5mMP7RVcSomFtQi5-6" value="" style="endArrow=diamondThin;endFill=1;endSize=24;html=1;rounded=0;exitX=0;exitY=0.5;exitDx=0;exitDy=0;entryX=1;entryY=0.5;entryDx=0;entryDy=0;" edge="1" parent="1" source="GwO_5mMP7RVcSomFtQi5-5" target="GwO_5mMP7RVcSomFtQi5-1">
          <mxGeometry width="160" relative="1" as="geometry">
            <mxPoint x="1578" y="1490" as="sourcePoint" />
            <mxPoint x="1610" y="1560" as="targetPoint" />
            <Array as="points" />
          </mxGeometry>
        </mxCell>
        <mxCell id="GwO_5mMP7RVcSomFtQi5-11" value="" style="shape=stencil(lZ3Zkiy3kUS/hq9tiR14nuU/ZCZKpEkjyihqlr8fwKjq6uuedeLWm3QZUZ2ZAAKxeHj8UP7tHz/94e8//pCvf/z26y9/+fF/fv7jbz/9UP79h5x//ttPP/7682/7f/1Q/uOH8m9/+uXXH//86y///Nsff///f//DkTz/679++e/zC//7u15aHykdrXz93+//0j7K7//wn7/L//Xnv32Vnx9L5etA+T5F/l//8Eq+NpGf/Pv5+ka+f1z0/ONjFZVvKN+HytPzjI+qz5PofYd+//5RCsj3j7FEvtLv94+u79sWysv3338wo3yeIj9Z3t530Xo1X69Fz98+xrfPP3i92kebIp9oP+ztnkU+0/u2j1xVvoN8/Vj6+4Xet370S+Qb7Yeq6zX4fFVdr8nnpXysJvKZfr98jCHylb5PeWzfp3yn718en+8pP+j7FLUn2+BdKH99u17r46Lzmz9mEflE3yd/9CrymZ4/6/ldH5XOV34sz1O+0ffPH9cS+UG/n/S+WB+Tfj99jG+/T7oeX/iVQquqgF80fZSmCmhy0+P3viigzU0f16UK/1rFe4XrY9o7TNp1l95K+18WvfR+RVHYn4HeYX/1rgoDFm5vA3mFjIZiqR3d8gW+0VI7+tzpL+SvqfJkGD+P+Rf5Abti2j7NaEjnR5NdV9BQzMfyfJEnR2J+pKXyBbbQfPz1L/IVnmc8ju0Xefqe42NcKk/f0/ymffPQ/jG/actXeN+udnfLk6PSzay0jwTP3x9f+4t8gfPS7Xw1tBHbDW4qT4Z0/5r8fkfHpj1W/4s8na/2cHu+yNP6todb/im/VxDWq6pfcDxr+P1q52s8VvyFfJHnn3ixVluvifawPHbXp/xCR7E8rt0v8h0cv6LPny9c36L2cMs32G/bmi2VXygv9jDzBbOt8VD5Cc+f9dbe/9Jh/+SHtfyUL+gI7dvq2/O+VzyRo6JxydnhKC/7IQokH6v/KT/YrVG/OH9Gxi/kq3z/xY76w5o95MvFjqXe1yVxYKL2vGS0b3s3fru+pT5uwBfycn+VhoHwpXFkGXhfX+qnl4nf59L9XxYG2lv+2+9T2ePbq/PtfqgZ94/LFww8Xb4+Mg3fKd8eFuY75XfgDPbB5XdgyPLf7oe27SfYt0vvx5YeK/hK/lt/oO39DPvfHPRW0Z5feh5be9wI3ynfMdBz+X2f4n5W+YX20OT79d7z9+j7q3xGf8C+f68Yd9r69s9Mzyv5b+1D7+jP7PMuvz+C/Sz+T5+PTMwr+W/Py7iC5+/f3l8jPSzSK/lvv//I6C9dGi+MgomX6/Frn/I1sIfi/48e2HOJBwcnBj+t8af8RHuV1N8Y+/6lRN9H+vb7z88d9er+lTxW4sS+xi8zY7yTNH6fJfB/WlH5gc8vdYNZOXGt6zvb4y++8t8kL9gx8Zgfq/8pPzAJlNU/nxPXN9v34XghP7yFz7za9cg6vZAXf3Vxiqnoflt83svj7T7lOf+z452s8h3jKfHH1ucTvorXTJ72W9Xzsiru56r3y5YvYH+qvS/7S1X9/y3P8azEa6s9Ir4X8Xi6VJ6yoE3382rozze9j7b85PyG5Ik/K0Wv8idD5en7d3v+joWDrnWhLU/+m+WX1sDvP+z7D8zXDY1/t3wFezL0vl6flczvy+9teSqUzJvn5/ynPz/5J1PrWmsG+VLJj2152j+WHz7ymH8u6T15yR+G8uOt5zkJev8D5HBcZqEnZzguTUkdBS4y6BmYXPy2oH9NDOK3QjUFuiVP0SKbAn1WywMdBS6I6cbmROKp6A1ToJfO6lpGCuXxxN/7SOVmswZVW7XWwVeqZq6DdbD87FEgf65qQuUokMNb796BMmZNU8DRbm13NoMV9NIMDpDfmoFCvzN7jAe52d70lbpdPKHCMkuPCuNhtr5fofr2ZpDQ8K0RoIrMtqJdmndHlBXUfwweaWoBJfpKSys00YmzkmxkZpbm3LYC1XxPCcTegYp8W2Ha9iZ42g7bFc4wMWzMd7co1iEskXMU+JF88w3+C8uOKKWSTy7B3oFioxPs28U+qFhj0XussGx7U7rI6zvrc8O/UnAjQA7uibBt4QZF8Puetu1NIfaJme2lA4VqLx0ouPsTKPg74EvXu3WgvVQVkHXOA610tUhsYub3lI7tPKARuLvYyZDlz1D5a3BCX6l9dDnTA7OVW0FhU5x+z36xD6zHbwUFfnGCOXez3gw13ApqBMbjEnul4C+NOTn3BAaCFhxlEv+F7mE3LdwwbybIE85HmvX7FTTzxJmAm1A6VJBadfRIS8FEsYK6P6GCWr5QQS1f8NLLoqzxuLnvE5KXuT+8vYt7AqHC8BMHZ7okc+FCBV+HQOHmHVjB1wFfOj1gJl8VKPGcH3mS7104j9h5a2wFTYTw5tsKAtKPFIoiRgMzU9x1CBXU/QkVur80K6jvHSgYtDxW0Gs3VNB4OlTQoClQMFhbtNLWDxAr3Fg+2q3t7sTReWjvWr5+s/nwiPabd0Aj0M2FC8zMuDlAgUJ+9y9UO9OBwnC7xAqaRAgUPuPz71e4WQdWGO/+hZu9RArrkcX43u3tSYTxKEW/UtA47rOW8kpB4+mB2dB6WTw9MNVSDQyyFbCYed240hdVMy+Lp/sjsrtXsCaHo0CPZACAxZ1cW0GTOR0RftUglkeBPqvnBBiTvBX8HSgG2gq6Dh1joK2g3kxHU1mt/2gxTmgr6HnouL23guaXOiKvqrV0bYUMR7R6TqAztrpaWafziavWFdWx/rAVtDzYEZ5T2019mQoWW6HYwgUKzbZ3oKDOSWcz0603rWNNsXpOoGMRu1qXxOqImqvdQsvGdmlYXqMhTnwrlKoK1KG2FZohJxr/BS1zNj6i07AojLWoXh1omIqv1jW9uFvlgGPtHai8Xj/zhp8KjLer7glUbCCoSztTjwJt72V5jYoQja2gB6giZmEraDaUFQ6G2BUIJWOw01URFt0Mtxl8peZF+YoXe0tm+XjhtoKGZRXP9FbwhaOm7q0w5ZEadvm3bEm1hnZpK2hikM9D8yp+Q4+suSfQECDXinnG3GGyFao/Ev8F9e5DhWXGGBWqRSjBV6oWZYUKN+/ACjfvQArW6RZtjXa3DqygHlmwW5vZpUChm1cZKmiEEiqoZxwqaLI/ONPj7kyT5RuWKA8VtNIU2KVheb7P3XWvMC1dxLdo8xA/VNCFC4zxtDxfqKBI0+CRlkGJQwXH1gYKijkJFs5xArz5+qXw72B7d+sXCsxM97I/29ZuLAOrYUfhVshvQYR7svPQsGd3K/hnRRBvtqxDqOC2lTInPVsNJVAoN856oKDuT6igxeDgpcsNthsVqrmhwcJVS4Q0LGhvhRtzT3upWjIn2K3Nkmqhws2VRR34zSD2wYkzLqLoTHdLhIQKN+/ACjfvwAo3bigpjDvXgRXec0O3gib7g4WbhtENtsa8aV7A3TpvjiieB78UgxO37iwfK9yE+Kxwc6HQO3gFnL/S6Rh8K0IZnvfmrTGsizBwpbfCTRsMGOPhEHT2NcZdtEsR++mTbKbAj6RXVkUqiK2gIU1FboeRzbZWbPbeCgraqpiQ2gqepsB1yNb/ULDfaTjariCObBTDCRTuoPGLvSCly1ZQcETBJPNW0FuUm9q2gqaxM+/WaqaSaRW2Qs6qQEDM4Xi+jI1tw4H6mdfB8XwZ06ej2h2XERU/moWWGS+U4d1widehKX3DVkCr4TmBhADAraAVv4T41tHtpRMiaLeChmXhX9D4ISE2dCtoO0NiyzcMuZmQRWkraEsG05JsBd2tCaELY9y8A2HWx7x5Byp+bQWtNCW2Gt47kDARMqZBFy5MMo9pJcKLd+uyePrCKs1W0LLOhf2bW0HLaxfChof7SxfWgbaCQj0vxDpMbza4cC9tBa3HMfPgNBaUo8B/wdvI6Y6bxnNwFIhnLhnQ5sJS7TRCx6NA75CsdfViqjzHCTD3y1ZQ6x0qTHsHVCgWDjCd11a4eST6rMXqQMyTOevNEQ0UFIkQKmg9LniHZsXgUEGvrGAdmgELLiykzmYBx4Vh2fRr98Ioa/q1e2GUNf3avbh12jiljwIY49mNPGNhvnUOPXFzob80rd19Lm4XH3rHHQV66aGZk6NAL20d8nPhpTiNYnMrkM83p8bTc2H1eBpJ6FGgzzoVyRwriCdwFMgYT3VDtwLFD9OqA5OJD/d/Vqaa9cjWvFKottIUcExrOzx/kzbf0rDskLfA1ljWvL8VkC330lv0fGiiE7g0XTQn4maOO2UKFA4cD88UaOGO0+kKRNFgrsPk5szjaVdVQJLgpDCYc6TopZN695NpnpblZubE+2HdEQ2R5VtWEpkDHd1lqZbJHPbLoAtz4A10shjylTqaypMnGapAkeKyGsrzmnyloC/d0XXYCuLo7qse18H8pdn4PFQNaY67QgtX1TOenD7dCmq9K7YSP3OfXxSQlbvZxV6wenygckkVKABf1jr59JVfKegRzdgOvboW5bcChTTL0BSTkzlPaqIvCnQDHZBwVgW0Gl0T5fPCLvMD1hY+PL6n19DtPSZ6AsuAmGPw5hu6vU/Gib6ScRydrBn/BSUZZKzDkwPpiwLRZZwuXflKhW8gm0czMuY1TqexvAOn7Y6CMBNyMucwgmRVoGzoMu75ztx1y/CtnYkgDk+ETIHhjqMnT8SnAtN9LUPQ9hZ9VgnAT4mbVnrq9u4V0xRHQT5r4fvBoDw9RSst2Z9+Ye7+SZnwUGjsSi+j5WpMi7xsDsOBcfFLSx2odTaV1qx8MIT0DhahtMJu6NJLsWVMeW0FQXkdEC7/hSxsxzyGZSvIAarMIbUV5AAd6D5tb6tP18Zbw8KyWpHRZisoBXbBNMUyDraa+H5YmuyvF9slg6CXICxbRhPO/XFHQXjIO99ArsAA8RuFgjWUG4WMVP83L50wqeYKmdMUywCAZz5LsDWE/n7w/bC0tpu5keucOCHkb0i4vYwTIVdk+HW7dIZC8IUi3n0OFm6qK50TP9LUrZG5SrOm5ozTiq5dyQmk4MT5oBumPVwG6k1MKrIMNpyYKnQZMPnMWmGvUofdMHn1aZS06TW4+SzgSIz9WcYLd/j0aB26YhITEzovA7k/Z9e9UtCRMYw5WTb77zmN7pWCTtEq/FkNWJAK9louo/E9Y6I4JyAn7sytYgUdtJSx29/zGmdmHOdmBAWcEqLiTzLnUgW03kWr+IcYlJM5km/dCuhrZBtndnGkmG1+0sW+hrUopSvKVepEoStKPcqVlbhwdGAEUjjitMZlbVk423XZjIIgeLis+QFxP6cek0Ueq4PeNsBlL688YD/6SdHr7EkcQWezcifX4o0Jim+2aUiTiTCQOWzGApr4OTQEGFzJGYrIY194dkuuYN/tKYSqPMU8s6tvMaJisaBeeDbtyQerPEEcp9HMdczpzab93h0BLM9k8FOerOjJBeusXwrNp5H+8mzjaRz/3NQ/i9pcDo2mlSWYYn4ajVNH5PuW15lCXFE25qrGpVIrPjUufCale2l4w5wcsz4/Rb/TxpY2vJDmpU4mN8oc+JPkINCPGNbVxc3Xw8N9TAQN61CvWFg4qDiVJ3aRYfa/MmLNyv8VPbmDNFR5IrcaFglVtA9j6H6ruN+GoUIC+a7+BgfIw+x/KC/cXIG89QNVHqHa1N8I5YvJ8/Nc9jz0Pa13umJudlQtr1eERQxrQ6t4/w4LHCqWEYbFDTwybVjYUBnlbbO9C97vw2by8AirLS+10MLY/KwzNwr6YyNptp7D25H0/ioYwpzeGcnrMSTXqCgKt6kYYSbX0obxcHE+rC+bCYn7s1s+uWAQ2Y3bjCvXp4lM14v2czc0Vyif9fuTf9uHtugHv29MOuHvC+oj+P2u/nYor4lqjI+65bSC9bIZRAX9z1NR1PUllFhvWiEJ9lvz/Ub203tyQ3n7ntQE1m1GVihv3xPlDdMTyps9CeSz2nNKfHXDSYXy/j1Z/r3vmdXfC+ST+nvB8yQtyIW/n+37036zZs5g/1+azw3Ol7VXsHyzBtlQvr8pX96Uv8z+E+vF1HxOKG/+AD7PVH8vkB/qz4fydt8F8jqDmt/XMFEFARrNRt2E8kX3fyB/vSXfNJ8TvG9T1ofgezYtOAbyVfMDfH63vK8v2IdWNR5n+7Pl7XuivE3PYHvYjGM7lPfzwhRibg+JfSv7/gzkiz0/y5v9QfmbeCSQ9/ua5f2+JnkbnBPKuz1n+WrPT8xKl8dTyIJq+a5Qvpu/x3yJxeIpJmRM+j1Rfnp8QSOK69SWnRLRaNr9RfnMOn3/oPzQ/F4oP3R9A3nz/wP5/Nb7Dq2KFmYO7soBGso3PS9Uz6rW6cZ4xy2f7PdpPzetxxXszD6Eu/b96fkNTxDs/6b5W76PqoHtOZ6thuYvzOZb3T+k+mC18QqZKcNtfkPG/FW1ARGZ+b+NJytjPr/aiAuGThyqbX0eZBYuul4ZgXU1a/06I7qkGgdpxnx+tXwjw7+qtSJl5v02mtbM/NTGA5sRuVuNeifziG5rOMsRab74J4xb2fIS/ybe/9bEl5jK+tLGlIT7udgM4YT1qS0v/nbiEezGy5hw9GFZBvl6c3gEU20UQ6OH8pKfDOUVKhXO49D1ovz2lpf6QiBvxOMJ6/tbXmC0Ce1JsTmpobzt50D+ekve8B6hfLf9xvLV9hsN++mKug/lFbaJ+J9ieJKECMli+eRQ3t6X8APF/I2E3SGlGvAP77st3/X7oP2xhsmEeJgtf9nz8BQuRdghfqkUt59ULyvF908gr9Bl9DfO2DHdP/j7NhI1lE/2feh7WrwfrFe62Q8sb8+P+8em3SXEY5xxerpeKG9Dd0L58dbzGPd/KK+Y1Eg+m30A+WzjEUJ5s884+dXy4aF80vsaJy1Pv09pP+ep8SzbhwPfNP+Nhu8ar2kgb92pbB+ycaSE8nZeUN5oYUL5YfYN/LF8c18H8ln3A8o3rd+F8raf8X2NjSiUv+x9aT8Yn1IorwDxSD7rfsOZxNX9PRx6bPdvxjaxAx/ReJ/i02c67Ev8y/LaYIX+ebb8fObvmT3/QPifbENKmPzTZ6QXjK/P8ryTDz/bReUJn/Z0x5/ywZx6wb8V7LDe8oZvJHxpNjxSxfrLlpfnr5jPz5fut4r5wy2fFJ9GLYbpBu9K912ySYgV8cnJRi3yUKnkbcyY/9zyEv/y4K00db8xXjrZuMuG+Zk01P53ft+h378jwXay+J1nnyW739vjA7yU1/UiPHAy4vWG9Vn//YoUa+kGP0z+VRpaL67YH3Tk9fcpn5mG2jc+j8mmtTBeN1l/DXc4pqn+asX7NBkxB/do3skH7yvP0zB+9/dt2KWdLN/F/RRnvYTPAu35kdd+Furv8P3Wsf/ryOv3of6d2/PI+9nOI9VD7+Sp39XtSWX7OdQfq2yfDc/DePJk3DfBeXxX3mYhVayXpZv6MuG9k3EdFj6/NvOhYP45GQcH1x+Ts1Eg/uf4D1pPIbx6vvS8ZyRpy5finTLuf/evuJ6VL6MnQHx4TppPy1gfz8Y/yDTyhxzB6k0UH6U348ek9o1ZxLK3GPP7Zq1Hc5P0iV80v4HxhbEiX+zPF41/L6z/PsvtT3nMRxXF8zND+LN94ilP5NrZ8GYX4nOe4cdTHuMXi98vtP+eHwjkLf8Qykt+g2mEPX8Syi/9PoRP8PxPKF/tfVle8lehvOTHAnnLvwXfx/J7obz4A4G85SeD/WD5z1C+2fen/I/lby/0Jz0/fCF9puefmT/B89uh/DJ5qndYfj6Ur/Z9WL7Z/mT58ebzL9ufXN+53noeq++E8tX2M9ePuu1nrh/5+SJ5q6/xfvb6HZ8vrw8G8lZ/ZPvg9c3w95utF8tP+z5cj77s+3M9utj3pPWy+nWwf6w+zsz/Xn+/ML/k9f0L41/HD/CsA8cnBPKGf+DhC46v4BkYjt8I5c0+Uzzo+JNA3vAtoXx+U97OeyDf35S3+5T6Hx2/xHNXHB8Vyle9rymedXzXhfHLwY+ZPNkf43NgAqZiPKA8Kufg60ye8X5N5SkePPhAfV+Kx+vl9p/qC/XGP6H8UjU+kIvxwIbPvLB+4fhP5vByfGkob/af8kU1Gbkb3i8Hf6v5AYoHD743qzzje7vF+/w8Vh/Hfo2i/fiJ8fzFn5/y7Y7fTox/Ljf5E8bPG96Jpm/VapyIWH+pNgmR8YEHn294KlqvpvmH9AhYX8kbXoLymYfg1+Rp/zfj+cP69Zafmj8kf8/7OzL6S94/EuDPrT8l83m0/hfGM3h/TSBv/TuhvDLMoj/m/UcZ/Svvbwrl5T4Nnsf6s0L5au9Lz2P5/8z9Nda/ltFf8v44zid7/11G/8f7+4L+C8MPZO7Ptf7EzP251v+Yud/W+itD+aXfE+WtPzSUV87nSH7Y9yR5658N5Q2/FMgrK3Ykb/iloD862fO/1R8dyg97fuq3tXx7KJ9tvag/1/rTQ/lp7wv2wfvrM/bnev8+49+cH4Dn3Dj/QChv9T7yD50/Ifz9ZfW7t/gfQnlfX/r+Vu8O5I0fI5S3+wvX1/g9AnnjDwnli70vy7s9Z3nlp2c+Los3Q/lm5534wYx/hs+v89uwfXD+HLZXzs8TyBv/Tyhv/m0gr2z/kfx6x/47/1Lw+8bvFMr7fU3yxk8VrK/xX4Xy/j1Z3uwhyhs/WLCfjX8sOC+WTw7kjT+N7bPzs/H94vxvGcn3nV8uI7+E89cxnsT58UJ5iy9Q3vj9MvIzOH9gKG/2EOWN/zAjfsn5FRmf35ffv8hPa/yQjOcf1t+dsV/S+S0z9gcd/kzdb5QvHUnrHRkn8I2b+wL5kLPzLRBeeli+MSMe+PCjGt6M+Vol/1ywPjiK5m+532HYEFHmexzGL8F8Pof/1vhJaL9VxY8VxBcNG+9ZmP/Z+IEL4jmdf5innTi/cShvfGsob/zMoXzT7xnIGx8dfh/jrw74bI0fO/x9459B+al4iRLyh6s82rcbfCzaN5t/8elw3cvbVLuCePJh9a+C+eSxvF+A6vXz0vuron04/PbW7wPnd9oEbebrnjafpeJ+m5a/Yv75aRNmuB9hGj8MT8A88xG0n4Xy8zM73p7ykz7fofG8D8tHcX+Ez6doPH/E4oWG9aMzX2OJPOHDZ9X8GPcXTLP/DftxzvwR67cK5pvo+9JotjM/ReeD4H7o6m93njdh9ZeOfF/T7H/n8zU0n9OxP/3Mx9HfJ/9tGj6zIx/RtPkOA+sd0+z/YHv1OVPxKU/9idP6+wb2C5z5SipP9fdpYyKD+UfL5tjzMDbja5p4ftel+22ivV2WXwomalt+iedVraT4isWT05Pmqxd/H8MnLJ4kl3X/Lx7MnhWvvnjUo/ULJAaErWIF+4uHDRdjVGIIzVZQShDuYVjVavCJhxhWm6CZeDyf3RqJYQ2rGi0R4wiW8wYlXjgrZCSuZC9nXuBU0FaYpkC+9OqaG09MJrhseNiZ3Mh/QdlrmL51Wbkkcby3FXSSKTfcnzmjsvnCcffK0FLxCtwK2jLEM6CW1VgSOy3LmlhTxyzSsil6abw5l/00ttJKT/VjT+cgKSwD7iyeKGudhfmKpnUrlWKK/oLm1jkZsxyMUKOhz5o9ZvqAZeHc8b94JLPmd0c0VloBRQu3Rrouoxi/uAf/RiNxV+6NBs9Bv9OoaGruNJibwT9V6dEeV3Laid3Cy7y3sthdWgr3qwnxKsvyyTUYjbssgC98SSyLsBuP913qAh1QGT+S+Oh1vDn+vS4eK7vUhLeLb5WlabiWECe7ltadGhODHwV5pMrDd838tRaZP4HOtYG55WW1jzaxWHJMuCQjFvuiy6ZrXgh/9VulM//jmRcv8zVzNGtdLPIpsZI7MI2BoSLFql+lvfFXmpoj7x1BccuGMPZgpae6ZX3ycPap52Er4BE1HpseBE5T/elnKes7faBTa2IFSdUOxl4sw24OJjs/fpwMB+Zs7TI2ksHjP5fBT0eLnFfZ3qPzyG5L4I/BtnVohn0MvkWtpHyS9HRErQZxsu50gIZtjcW7dWgVel5IC+ZRx7yw7rjjGumbnYld/K5EESfVTSttyIEZxJddr6zJ3G9bQXqjJxcrV1dw4Ayiv6aph61A7TJbQRIDk/mUVtOYYCsQIc5WyDLgvLERaDaxnCmJVlWPbHY2xtVyiJ0tnxVptwJlNZexOpy8Mf+FyxQob72KvfTgr1Q0Ub8VMFw0ZNUM7jgrxc/JK100gn1mp18m+5IqULZ+ZbWtWwFf2uhQZpA/zerzzcCFy1qQ2QpU8VnJVnrxlWUUM3NhDXYZxmQuNpVJizIzyNIm9VsXt32fNPlUBTSVl7pwixtN93+upoCX4qXuz/4XKh2uS0vzi531acHreSsqNi613uvClT5bragCXbvTgqbF/YvTQprFDYz7QC5TIGd9GiPkSgjJmQZ5W9zDOG3G+lHgRxIjcB6JqppTjUCkMDSX/TyDrxTE8kVfyYhkFtcUtkLxdaCVNuhMtNLGnbO4uXVa8vso0Et3RZOshO1l09oBo+3dlY9rMWHWdnamvQOli57e0fceUaNsWgkv9tm0xry4PjWNdOoo0ImzglaskGzzoUJRnGas0OxMBwrJX5o+q1GjRQuXb45oAKZJfh4CNJC9A1oNo3deHJZN4+tZ3DA9rxsjQBmsrTDssxLF3jTI7+KZS9M9gYQ1hemeQMKwbLgnECqoJ5AwYh+Gu47/glsNRApbfWpxCnjYKKjFs762gpoZLiEPy8It7mY9aMmiCgSPcDjmYj7LYXy067OD85VCs79ADNFbwd+BYqCtoOaeU8AHQyt/oaDlOyDdpQoUHg+/dgPYdjc3lHlRHZe8eHDxVhiuwMhqPXE8ynQYFG8F2PBmJ65gCnhUs60BGrhqKn4VHJ+4FSRR/kTHvFIQhMSq6P5sBcFgPOE0rxR0e1dsWRpGIbI4Rzash3krUIg/jJR0MWp3FMVgHIQP7SWjZVmcthuWajmQIG4kUSPAkwNGNr+Vobun9cT+AnEfjaxZ6cWZxJHtpRuj163bZvG4gZEULriYD30k7f8/SWHa3klzxkeBO6Q04OhsKi/NLx0F+kqXnenO1ttA+EeBu87UdegYx3UrmS+e+7AVJAW8mJi+u/sTKFghNVbo/g6sUHxr0Esb+Wv0WY2dPlo4g0cHu/X0X16mQA2t3fJLoYJmTnh7dwP1xX9BEyGBgjsnocLNO3Cb8M07sIJeKMFKW+NytJeqZXSD3Vq1Ah6dh2pYZh4e0a0ZMDDG3boNYwV11kOFy04c5QR6VsKIWOHmiNIj5TvLRwrJkv3BOiRL2wUrnSxiD/ZSUtxMtL2vuwuFDpARNUdm5rKUF9/TzaieDl6ZuFmWOeudyZ48J9CZ3WfdOCdI13N3KQYK7pwECm75AgX1KkMF9SqDr2QQkljBzwOyOBnAI1rpYWnsYC915TGIFdzcUxzX7q7dQOHGdWDupOX3Q0C25EaAFW5sKytkv+OIT6gq4ClW0LxGqFDdthLlVb05QKhQ7t6BSLjK3TuwwntuaCt3EQopGA9O9NJZ8RqxQvXtTQtno2KizefVgeBMJyX/jOySsfFGttWBBZ35tYyvY3UmqLIBCU8Y1ysFzc10zPO168YNJYVqMySOApFiGqI8VvCFCxSyHVFKlFfj1Q7WoU6F562ORflqCNrVEa9xqEZNgfKtW8E3HyWk6lAoz+rI1rAV3CNDOu67i50aJurQ/vkn0vJewZP9I2Lc1RLhYEpTGwlw4KXEmdoNTTF4pY20ag2Eq24Fxc0MpoVuSosYK+heChQM9RgraL51MHV21Q6LoxBwZ/tnJfLdos1ZsYJm1oNH8ot98BE1/rk1kEDmEKTb9kaG7qyMnAcyTubeRr4cUDpxdHvZfzBJdzLnhLvwDwu+rDRjQ7eC5mYmWw3jPTnNAfTSl73DZKboy3JkE2OgraAglclXlqexJ2JDi1/sE89D8bL/xErTVtDzMLGZfSvoeZiIPi1exZ+Iij8TOcqbCnqxhwoacAQKw+qioYJiTkIFDZpCBS1zhgqawQoUuuXuQ4WbdaDZK/1mL1FPUzGymDXRVBZrZ3j2gr1SuHkHOnFNkf2xgmZ/JvbHFQfPhQqKagkVNMoKFdRJDBSKpR5DBU3bhQp6KYYKN5uPFW4OEClkS9uFCuoZB3spGyIkVFAYTHAe3BMITly6O3F0po2gLLIajhgM7FK6O3GkYDMNY4U33+G6sxrwlbIXtHnh8p0nQFtjK7xn+bK1Qwfb+zAVvWVmnlRI3/tI09IUoYKGx6GC5sgCBZtHH730sLzGRMzJVtCwbPKI5GH1uInYn2yc+88m71cKGtJMhHpma508jer00jZm4PTO02e1OYSLKQ580PBiJqzsuPvFo8ibJQYXwvOeVIlfFAi/lG1Y1KGGoEeqdoAWhpaHrdIVIKTJ1WLRhQipw+fZTYHewXMC3Ix2GHbtKwUK6joECp4TCN7BcwKhgro/CyP259ihrwq0cElbiY8CHVHPCSw2Askq4KGCzpZ7ctbca1hS4Ds0tIQXPJT3EQYrYRMsoiN0WWqQ+znTsmaxhaS9yfhg1mcB4JWCbz8yZcnTCAt5VJMRlxxzDCcieTPAwuxMmtZNszDNvBXUAWIaheRphFDBNx8+kk2HjRW01hQodPNnQgUtWQTrYBMeYgUFcC+sBKWmVBBHgXZrs4g6VCj+F/iRLlsHVKg374BfyQZNRgtXDR26sPcrGdVx4GKlcvcOZAQcF78wRZvK3RGlhcsWZy0EkSQvy4cKN9ubH0lBt8FX8hA8WIdkEURgl9KdM02bz6vswQG6LBXC3nfyHryFRfN03XxWKmkbNWEo73uV5W9MBrzxetPqzZslwFZOwzkw7+G0xoTFjc03z0/9tDaYfE1uUDQM3MQuzmHmbiLZgg16D2oz3os+edKUlZgnNj4ZMfpiPpeuxNynTkmwFCsHDPTYbHDUkxTqhbwWNAY2lRuR/eqY9qiWTOo8+fwGakGdzF4dZ7iVo94aTzK327WhT14sidnwfHkUXBE/4EEwT+rIN72FtB9s8MPKSAuYLXWRONdhpB5MfeIB84Ul7qSexKHCpztS75cnlf8Ledmfh0+DbsgbzirCDyYjJ2Mq3qSRxCFxwO+jDFfMZXZpEvLQH8D3vG743mj/XFp2PpR1cF4ujZEH+0CGGxwTYU+XhqODOSgvXd/BnYSX7v9R8b64bDBDQftzKXpu8KQ4G7QwmBjlUvvTmaTq0vPbJ5KIX+rj9hHsB4ngnqMNX8nL81e8v4yNuReEOrk8TwJ3+QtTjibfOKnk8hMxdi7PlOwuz623l1YFW0X/57LBOUxIbFm6loPzKAyY7Qq+p1SiKodULs+0oi7fEfjm8g3jCxskXytmYl0+Y8nU2qNqQhDopd0ghVPulrYtHC8YDLzwZB7LI5eGlfdL/Z8D68DvKQiLA6HA/aaD6HJgnyVRWC4sGia1h8FkmKT7LTP3Y9L7JTNUNNngXgakJxuUy5PKkraCntIY+lcCKTvDF/B9dTJCRvuZNZ49b0RFLRt0zetr/vY5EVRa1JzrKWPg88j3SVwgsExfmkgVXWygzcRpCEWrWYnj96LlsjSQe6WoP5wGtrAaGDvxpDLrnk7cDVQ1EZoaIlSq2ofEk/SatoqenDk1QdpIl4rxoOX4E5O0NI2vt3xGeYl/E993Bo5MTK1j6MvEk0K7nZfCdCtqn0+unIhHFFSYgknLNlYrY35gaHyXMsbLw857wknFU/2HFLDAaXyUEk9W1PsiJZ70aOeL/Zmp/SBnJhhRTtv6MvvgsiFlF1OL23m8EFpi1LTpYppjhe+ni3mU7TxeXN6ygHbh/knOcoOYwPN6kkAMpgZZQYIL4t4QwYUqJw5ifyMpJItBYskcJkaWnuOkkxWpVy4lRT3wbCGvs03eD1kN9GT/LWuCmOOvZAlN7vI5s+l08ieBVr3UOfC+2NeDJPiYkT4VLQgN9p+LJbw4n1kUI8XDplLxya6ImjEK/s7fp1pCCut9qapDzPWCZLB+zu8la9zn+sJBFMjEJfS3HbLQeGZZ0/dt2LrqoAuebJys16MxBKmpA8r+Z+o+yRnXt2uBp3EVviuUsmG/WjKu6orAtC0vDivne3c4Ie9bGTRmcyB5MvkJb1Qev//QgKdifLrDLZuUHsiLfa7oX6WpDmtlWMa0yXJcD1p6vgqCTNPSBGJh/2RpAqUgTjEttf+V619L0ZmV97NNSwvmExqEMNg/S89jZXtyI4/27eZ5KP+czIFuyG6cjECw8X3hw+TYn1la8GgM0Qnl9//4+x9+++n3//Onn//613/89usvf/nx63//0y+//vjnX3/559/++PlP//jpD3//cf+//wc=);lineShape=1;" vertex="1" parent="1">
          <mxGeometry x="1292.4207865604403" y="1483.086511078654" width="507.81596703289665" height="106.24754329132998" as="geometry" />
        </mxCell>
      </root>
    </mxGraphModel>
  </diagram>
</mxfile>
